<?xml version="1.0" encoding="UTF-8" standalone="no"?>
<svg id="b225c2ac-b0fc-4c56-8095-6e63207963c3" xmlns="http://www.w3.org/2000/svg" data-name="Layer 1" height="648.3" width="1068.6" viewBox="0 0 1068.58312 648.29544">
 <title>hire</title>
 <ellipse cy="613.3" cx="679.58" rx="389" ry="35" fill="#3f3d56"/>
 <rect opacity=".3" transform="translate(1466.8 411.83) rotate(180)" height="285.98" width="422.23" y="125.85" x="555.15" fill="#3f3d56"/>
 <rect y="26.202" x="759.7" height="136.25" fill="#f2f2f2" width="125.02"/>
 <rect transform="translate(1310.4 186.49) rotate(180)" height="8.235" width="120.53" y="152.05" x="627.77" fill="#f2f2f2"/>
 <rect transform="translate(1627.8 500.92) rotate(180)" height="8.235" width="42.672" y="309.27" x="825.41" fill="#f2f2f2"/>
 <rect transform="translate(1710.1 530.86) rotate(180)" height="8.235" width="122.03" y="324.24" x="826.91" fill="#f2f2f2"/>
 <rect transform="translate(1314.1 246.38) rotate(180)" height="8.235" width="173.68" y="182" x="603.07" fill="#f2f2f2"/>
 <rect transform="translate(1314.1 292.8) rotate(180)" height="8.235" width="173.68" y="205.21" x="603.07" fill="#f2f2f2"/>
 <rect transform="translate(1314.1 339.21) rotate(180)" height="8.235" width="173.68" y="228.42" x="603.07" fill="#f2f2f2"/>
 <rect transform="translate(1314.1 385.63) rotate(180)" height="8.235" width="173.68" y="251.62" x="603.07" fill="#f2f2f2"/>
 <rect transform="translate(1314.1 432.04) rotate(180)" height="8.235" width="173.68" y="274.83" x="603.07" fill="#f2f2f2"/>
 <rect transform="translate(1314.1 478.46) rotate(180)" height="8.235" width="173.68" y="298.04" x="603.07" fill="#f2f2f2"/>
 <rect transform="translate(1314.1 524.88) rotate(180)" height="8.235" width="173.68" y="321.25" x="603.07" fill="#f2f2f2"/>
 <path fill="#2f2e41" d="m844.19 229.86a22.115 22.115 0 0 1 6.0539 -3.036 154.37 154.37 0 0 1 42.655 -9.2852c12.683-0.89939 26.43 0.16885 36.336 8.14a12.494 12.494 0 0 1 3.6858 4.2941c1.2463 2.6894 0.86859 5.8156 0.46513 8.7521a9.8895 9.8895 0 0 1 -0.84872 3.2948c-1.333 2.5381-4.6151 3.4273-7.4658 3.1229s-5.5256-1.5105-8.3375-2.0697a37.269 37.269 0 0 0 -5.2659 -0.53628l-17.635-0.95472c-10.966-0.59369-22.077-1.1775-32.834 1.0357a32.706 32.706 0 0 0 -9.4863 3.2689c-2.4569 1.3794-4.1114 3.3588-6.3911 0.81094-4.02-4.47-6.23-12.7-0.94-16.83z" transform="translate(-65.708 -125.85)"/>
 <path fill="#f2f2f2" d="m871.51 237.66s23.72-10.633 32.717 1.6359-4.9076 7.3614-4.9076 7.3614l-15.541 4.9076-17.177-3.2717z" transform="translate(-65.708 -125.85)"/>
 <path fill="#ffb9b9" d="m872.74 229.89s3.2717 15.541 0.81793 19.63 13.905 9.8152 13.905 9.8152l15.541-6.5434s-4.0896-25.356 0-30.263z" transform="translate(-65.708 -125.85)"/>
 <path opacity=".1" d="m872.74 229.89s3.2717 15.541 0.81793 19.63 13.905 9.8152 13.905 9.8152l15.541-6.5434s-4.0896-25.356 0-30.263z" transform="translate(-65.708 -125.85)"/>
 <path fill="#ffb9b9" d="m910.37 214.34a24.558 24.558 0 0 1 -24.538 24.538 23.947 23.947 0 0 1 -4.3596 -0.39259 24.537 24.537 0 1 1 28.897 -24.145z" transform="translate(-65.708 -125.85)"/>
 <path fill="#f2f2f2" d="m925.18 289.06h-78.255l1.7743-7.7035 7.681-33.472 8.8788-5.9966 0.0075-0.00749 4.17-2.8224 2.0737-1.3999s1.2277 0.56147 2.6426 1.3251c0.41169 0.232 0.831 0.47164 1.2502 0.72615 0.0075-0.0074 0.0075 0 0.0075 0a14.648 14.648 0 0 1 1.9314 1.3401c0.11231 0.10482 0.20964 0.19465 0.307 0.292 1.5571 1.5571 6.1013 9.8221 13.618 5.5923a11.448 11.448 0 0 0 1.1005 -0.68869 54.46 54.46 0 0 0 5.5923 -4.4394c1.5797-1.4449 2.6053-2.5604 3.4438-3.3315a5.4377 5.4377 0 0 1 1.2726 -0.94329 2.4196 2.4196 0 0 1 1.1454 -0.2769c2.4556 0 5.7271 4.9035 5.7271 4.9035l0.09733 0.28448 0.00749 0.02248 10.324 30.993z" transform="translate(-65.708 -125.85)"/>
 <path fill="#2f2e41" d="m846.93 289.06h23.717a57.721 57.721 0 0 0 -0.42672 -8.205c-0.72618-5.4725-2.5079-10.743-3.6309-16.148a67.934 67.934 0 0 1 -1.4299 -14.404c0.00749-0.66629 0.02246-1.3401 0.08235-2.0138a9.22 9.22 0 0 1 1.2951 -4.372c0.56148-0.86093 1.3326-1.5946 1.9315-2.4181a5.5484 5.5484 0 0 0 0.54651 -0.86094v-0.00748a4.9763 4.9763 0 0 0 0.20213 -0.45667 3.6965 3.6965 0 0 0 0.22459 -1.1155c0.13475-2.4705-2.1037-4.8512-4.5218-5.8693a16.906 16.906 0 0 0 -10.593 -0.42672 50.422 50.422 0 0 0 -9.9569 4.0726c-1.0706 0.52405-2.1336 1.0631-3.1592 1.662a15.684 15.684 0 0 0 -3.3464 2.5454c-2.5454 2.6277-3.6608 6.2885-4.5592 9.8296a20.782 20.782 0 0 0 -0.86093 8.3847c0.00749 0.08984 0.03 0.18716 0.04492 0.277 0.89088 4.664 4.694 8.1676 6.7228 12.465 2.3507 4.9859 2.1935 10.795 1.2577 16.23-0.04491 0.277-0.09732 0.554-0.14972 0.831h6.6104z" transform="translate(-65.708 -125.85)"/>
 <path fill="#2f2e41" d="m943.47 259.1a185.35 185.35 0 0 0 -6.4606 29.953h-33.81q-1.325-3.6159-2.6426-7.2393a54.276 54.276 0 0 1 -1.8042 -5.5698 26.657 26.657 0 0 1 -0.75613 -6.7078c0-0.539 0.02248-1.0855 0.06744-1.6245a0.02281 0.02281 0 0 0 0 -0.03 26.789 26.789 0 0 1 1.9538 -8.2874 30.912 30.912 0 0 1 1.7219 -3.4961c1.5722-2.8449 3.4737-5.5249 5.1656-8.3098a38.138 38.138 0 0 0 2.7475 -5.3303 0.02752 0.02752 0 0 1 0.0075 -0.02248 19.132 19.132 0 0 0 1.5496 -7.4489c-0.05237-3.3015-5.6372-9.0586 0.43417-8.5046 8.2875 0.74864 15.407 5.5175 21.898 10.953 1.7294 1.4523 3.4213 2.9571 5.0758 4.4394 2.5604 2.3058 5.2629 4.8212 6.034 8.1825a8.724 8.724 0 0 1 0.21714 1.6321 22.405 22.405 0 0 1 -1.41 7.41z" transform="translate(-65.708 -125.85)"/>
 <path fill="#ffb9b9" d="m892.8 250.07a18.281 18.281 0 0 0 -3.8385 -6.1891 14.241 14.241 0 0 0 -5.8635 -2.9706 32.065 32.065 0 0 0 -8.6016 -1.2328c-3.464-0.02158-7.4806 0.9076-8.9516 4.0438-1.1681 2.4905-0.26255 5.4396 0.91357 7.9263a7.7714 7.7714 0 0 0 2.4248 3.2756c1.4938 1.0093 3.4258 0.97731 5.1967 1.3154a23.969 23.969 0 0 1 7.6806 3.4804l6.0672 3.6674 10.421 6.2993c-0.27461-0.166-0.177-7.3125-0.49707-8.4837-1.03-3.79-3.35-7.57-4.95-11.15z" transform="translate(-65.708 -125.85)"/>
 <path fill="#2f2e41" d="m909.75 201.56a6.2284 6.2284 0 0 0 -2.7014 -3.526 14.294 14.294 0 0 0 -0.57036 -4.6533c-1.486-4.3931-5.0063-4.1413-8.3278-6.0836-1.4411-0.84269-1.352-1.5875-2.1022-2.9716a11.029 11.029 0 0 0 -4.2496 -4.3359c-2.1309-1.3577-4.3804-2.7559-6.9012-2.9278-5.2977-0.36109-9.3595 4.6218-14.423 6.221-2.2318 0.70486-4.63 0.73391-6.8736 1.4003s-4.482 2.2575-4.8164 4.5739c-0.15436 1.0694 0.118 2.1665-0.03859 3.2357-0.31127 2.125-2.1756 3.6132-3.4236 5.361-2.7598 3.865-2.4442 9.3252-0.23713 13.53a19.019 19.019 0 0 0 1.5914 2.4904 15.319 15.319 0 0 0 1.6803 5.6889c2.207 4.2053 6.0048 7.3477 9.972 9.9584a23.537 23.537 0 0 1 -0.58844 -4.2465 2.9294 2.9294 0 0 1 0.18057 -1.407c0.44182-0.92357 1.6092-1.1692 2.4994-1.675 1.8436-1.0477 2.5666-3.3662 2.6199-5.4861s-0.39593-4.2432-0.17383-6.352a3.4708 3.4708 0 0 1 1.1882 -2.5531 4.104 4.104 0 0 1 2.2401 -0.53407c3.7774-0.15411 7.7243-0.2235 11.056-2.0098a16.385 16.385 0 0 1 3.4412 -1.7408c2.8316-0.7384 5.7257 1.2463 7.3576 3.6753s2.4456 5.3196 3.9512 7.8288 4.1068 4.7469 7.018 4.4496a1.165 1.165 0 0 0 0.8694 -0.3866 1.3032 1.3032 0 0 0 0.16015 -0.7407l0.16265-11.128a16.82 16.82 0 0 0 -0.56 -5.65z" transform="translate(-65.708 -125.85)"/>
 <path fill="#2f2e41" d="m845.03 275.87q0.79725 6.5692 0.96577 13.183h-20.59v-17.3c0.10482-0.41928 0.21708-0.831 0.35183-1.2428 1.2877-3.9678 3.9903-7.2917 6.3334-10.743 0.1124-0.17226 0.23212-0.34443 0.34443-0.5166a28.107 28.107 0 0 0 2.5604 -4.619c0.33685-0.7936 0.87585-4.6341 1.4448-4.9635 2.4406-1.4149 4.4245 4.634 4.7613 5.9816 1.1978 4.7988 2.2385 9.6424 3.0245 14.531q0.46 2.84 0.8 5.69z" transform="translate(-65.708 -125.85)"/>
 <path fill="#2f2e41" d="m949.07 289.06h-47.26c-0.40429-0.95078-0.80109-1.9016-1.2204-2.8448a83.172 83.172 0 0 0 -11.334 -18.589 4.9181 4.9181 0 0 1 -1.4 -2.7775 2.3509 2.3509 0 0 1 0.30706 -1.2502c0.71866-1.3401 2.6202-2.1262 4.1624-2.7624a14.343 14.343 0 0 0 4.327 -2.7251 9.2786 9.2786 0 0 0 2.5005 -3.6907 8.0988 8.0988 0 0 0 0.31436 -1.2726c0.21714 0.28439 0.44177 0.57646 0.6589 0.86086 0.5315 0.70376 1.0705 1.4 1.617 2.0962 5.2404 6.7302 10.998 13.363 18.237 17.353a30.682 30.682 0 0 0 5.9591 2.538 1.5638 1.5638 0 0 0 1.2576 0 1.522 1.522 0 0 0 0.54649 -1.0032c0.64391-2.6951 0.86845-5.4726 1.3401-8.205a46.735 46.735 0 0 1 4.9336 -14.209c1.34-2.493 5.697-11.604 8.4595-5.8619q1.1902 2.4817 2.3957 4.9784c0.50153 1.0556 1.0106 2.1036 1.5197 3.1593a19.648 19.648 0 0 1 2.463 11.005q0.13 11.61 0.23 23.2z" transform="translate(-65.708 -125.85)"/>
 <path opacity=".1" d="m846.93 289.06h4.095l-2.3208-7.7035-3.3464-11.102a36.216 36.216 0 0 1 -0.32191 5.6223 37.435 37.435 0 0 1 -3.2641 11.11c-0.32191 0.68126-0.66629 1.37-0.94328 2.0737h6.1014z" transform="translate(-65.708 -125.85)"/>
 <path opacity=".1" d="m930.34 265.38c-0.57663 1.5507-0.053 3.2656 0.39146 4.8593a48.96 48.96 0 0 1 1.7844 14.207 0.51708 0.51708 0 0 1 -0.60472 0.61978c-1.8879 0.11565-4.0493 0.12788-5.3302-1.2639z" transform="translate(-65.708 -125.85)"/>
 <rect y="2.9435" width="422.23" fill="#3f3d56" opacity=".3" height="285.98"/>
 <rect y="29.146" x="26.951" height="136.25" fill="#f2f2f2" width="125.02"/>
 <rect y="29.146" x="229.08" height="8.235" fill="#f2f2f2" width="120.53"/>
 <rect y="186.36" x="28.448" height="8.235" fill="#f2f2f2" width="42.672"/>
 <rect y="201.33" x="28.448" height="8.235" fill="#f2f2f2" width="122.03"/>
 <rect y="59.091" x="200.63" height="8.235" fill="#f2f2f2" width="173.68"/>
 <rect y="82.299" x="200.63" height="8.235" fill="#f2f2f2" width="173.68"/>
 <rect y="105.51" x="200.63" height="8.235" fill="#f2f2f2" width="173.68"/>
 <rect y="128.71" x="200.63" height="8.235" fill="#f2f2f2" width="173.68"/>
 <rect y="151.92" x="200.63" height="8.235" fill="#f2f2f2" width="173.68"/>
 <rect y="175.13" x="200.63" height="8.235" fill="#f2f2f2" width="173.68"/>
 <rect y="198.34" x="200.63" height="8.235" fill="#f2f2f2" width="173.68"/>
 <path fill="#d0cde1" d="m214.28 292h-16.25q-1.8753-5.042-3.3314-10.211a20.399 20.399 0 0 0 -5.3004 -10.803 20.037 20.037 0 0 1 -2.2833 -3.0993 14.557 14.557 0 0 1 -1.4374 -8.8264 22.926 22.926 0 0 1 0.41924 -2.5005c0.71121-3.1966 1.9015-6.266 2.8972-9.3803a3.5579 3.5579 0 0 1 2.9047 -2.4032 5.7618 5.7618 0 0 1 3.1742 0.36682 3.9424 3.9424 0 0 1 0.63637 0.32945c1.7743 1.0706 2.6951 3.2566 3.4362 5.2554q5.087 13.655 10.166 27.31 0.9882 2.6502 1.9764 5.3153c0.97322 2.6052 1.9389 5.2105 2.7625 7.8682 0.07 0.25 0.15 0.51 0.22 0.77z" transform="translate(-65.708 -125.85)"/>
 <path fill="#2f2e41" d="m146.62 172.18c-4.041 1.3647-7.702 4.5566-8.5295 8.7408-0.38359 1.9396-0.14841 3.9558-0.47121 5.9064-0.74864 4.5238-4.2997 7.9788-7.575 11.188s-6.6576 6.938-6.8966 11.517c-0.26176 5.0143 3.3748 9.7118 2.7455 14.693-0.73108 5.7875-6.8439 9.5377-8.355 15.172-1.009 3.7623 0.22743 7.8151 2.2617 11.137 3.8765 6.3302 10.503 10.628 17.559 12.932s14.571 2.7885 21.994 2.8663c9.0377 0.0947 18.85-0.6812 25.641-6.646a20.541 20.541 0 0 0 6.8193 -13.373c0.64509-6.9093-2.2387-14.048-0.24952-20.697 1.2519-4.184 4.3912-8.0051 3.9227-12.347-0.45809-4.2454-4.166-7.2547-6.7098-10.684-2.375-3.2022-3.8162-6.9839-5.2287-10.712l-4.8328-12.757c-0.95-2.5077-1.9933-5.1452-4.1105-6.7911-3.9636-3.0812-10.337-2.4758-14.972-1.8403-4.28 0.58-8.86 0.29-13 1.69z" transform="translate(-65.708 -125.85)"/>
 <path fill="#a0616a" d="m150.36 214.22s0.473 14.191-0.94606 15.61 5.68 10.88 5.68 10.88l12.772-0.473 6.6224-5.2034-5.6764-7.5685s-2.3652-12.299-0.473-15.137-17.98 1.9-17.98 1.9z" transform="translate(-65.708 -125.85)"/>
 <path opacity=".1" d="m150.36 214.22s0.473 14.191-0.94606 15.61 5.68 10.88 5.68 10.88l12.772-0.473 6.6224-5.2034-5.6764-7.5685s-2.3652-12.299-0.473-15.137-17.98 1.9-17.98 1.9z" transform="translate(-65.708 -125.85)"/>
 <circle cy="76.778" cx="92.457" r="17.029" fill="#a0616a"/>
 <path fill="#d0cde1" d="m166.89 292h13.81c0.51656-0.93579 1.0032-1.909 1.5646-2.7924v-0.00749a7.6425 7.6425 0 0 1 2.5154 -2.6352 9.9114 9.9114 0 0 0 1.8641 -1.1155 4.8087 4.8087 0 0 0 1.1379 -2.1261 32.947 32.947 0 0 0 1.5572 -9.1783c0.02246-1.0481 0-2.1112 0.0599-3.1592a13.282 13.282 0 0 1 0.31442 -2.4331 19.16 19.16 0 0 1 2.0438 -4.6266q2.8074-5.1094 5.6298-10.219a7.1425 7.1425 0 0 0 0.3818 -2.9946 7.3815 7.3815 0 0 0 -1.2128 -3.8405c-0.262-0.47164-0.54651-0.94329-0.846-1.4a31.093 31.093 0 0 0 -4.0127 -5.1207 32.463 32.463 0 0 0 -11.424 -7.7334 6.6299 6.6299 0 0 1 -1.5347 -0.74864 6.3698 6.3698 0 0 1 -1.4074 -1.6844c-1.4973-2.2534-3.324-4.7913-6.0265-4.649a3.7052 3.7052 0 0 0 -2.8598 -0.19464 3.91 3.91 0 0 0 -0.41923 0.13475 26.606 26.606 0 0 0 -3.002 1.5646 13.935 13.935 0 0 1 -8.0853 1.4673 2.7385 2.7385 0 0 1 -0.94328 -0.23957 4.8335 4.8335 0 0 1 -0.86842 -0.70371 4.9916 4.9916 0 0 0 -4.9634 -0.79356 4.507 4.507 0 0 0 -1.9764 1.3925c-0.4941 0.62137-0.83848 1.37-1.385 1.9539-1.4149 1.5122-3.7507 1.5721-5.8169 1.5646a53.759 53.759 0 0 0 -12.779 1.1754 24.293 24.293 0 0 0 -10.062 4.8661l-0.00749 0.00749c-0.40426 0.34437-0.77858 0.69623-1.1529 1.0706a8.5457 8.5457 0 0 0 -1.9914 2.8448c-0.569 1.4673-0.4941 3.1218-1.0107 4.6116-0.569 1.6695-1.8342 3.032-2.3432 4.7089-0.38929 1.2727-0.33689 2.6801-0.98071 3.833 0.02994 0.02246 0.0524 0.04492 0.08235 0.06738 2.725 2.3956 5.0533 5.5399 7.7858 7.9131a15.713 15.713 0 0 1 3.9528 4.417 7.2964 7.2964 0 0 1 0.48662 1.1978 18.419 18.419 0 0 1 0.40426 4.3571c0.34437 6.9998 4.14 13.348 8.3847 18.918 0.08235 0.1123 0.1647 0.22459 0.25453 0.3294z" transform="translate(-65.708 -125.85)"/>
 <path fill="#d0cde1" d="m122.48 267.2q-0.9658 6.704-1.9465 13.401a58.384 58.384 0 0 1 -1.3325 7.0971c-0.38931 1.4448-0.89088 2.8598-1.2428 4.3046h-19.499a18.677 18.677 0 0 1 0.18716 -2.4181 39.978 39.978 0 0 1 2.4331 -8.3922q3.4026-9.1858 6.7976-18.387c0.96572-2.6127 1.7967-5.3453 2.8598-7.9356 0.18716-0.47905 0.38926-0.95819 0.6064-1.4223 1.1304-2.4855 4.2672-1.4673 6.588-1.093a6.2559 6.2559 0 0 1 1.8416 0.524 4.7519 4.7519 0 0 1 1.7294 1.632c2.201 3.2566 1.7218 7.5613 1.1529 11.454q-0.08 0.62-0.17 1.24z" transform="translate(-65.708 -125.85)"/>
 <path fill="#2f2e41" d="m182.26 289.21c0.02993 0.10472 0.35184 1.2202 0.88339 2.7924h-16.25c8.0553-1.385 15.37-2.7999 15.37-2.7999z" transform="translate(-65.708 -125.85)"/>
 <ellipse cy="66.845" cx="93.876" rx="18.448" ry="9.9337" fill="#2f2e41"/>
 <rect y="108.22" x="270.49" height="285.98" fill="#3f3d56" width="422.23"/>
 <ellipse opacity=".1" cy="369.5" cx="631.33" rx="49.41" ry="5.2404"/>
 <rect y="134.42" x="297.44" height="136.25" fill="#f2f2f2" width="125.02"/>
 <path fill="#2f2e41" d="m403.41 322.83a1.8351 1.8351 0 0 0 2.1511 -0.8888c1.7292-2.7245-1.4545-6.2375-0.76511-9.39 0.55228-2.5255 3.4221-4.0245 4.0089-6.5423 0.57015-2.4464-1.1867-5.2039 0.00076-7.4175 0.93029-1.7342 3.2541-2.1906 5.1985-1.8868s3.79 1.1586 5.7543 1.2783c2.6175 0.15958 5.1127-0.99268 7.6722-1.5636s5.6814-0.34739 7.1872 1.7996c1.9333 2.7568-0.02783 6.5956 0.64535 9.8948 0.53455 2.6198 2.7277 4.789 2.7748 7.4624 0.01675 0.95019-2.4812 0.18473-2.3484 1.1257s-1.0478 0.11246-0.1041 0.00067a1.8692 1.8692 0 0 0 1.4202 -1.6893c0.11221-0.78377 1.5851-1.045 1.5681-1.8366-0.03982-1.8552 3.3142-0.60431 3.8666-2.3758a17.964 17.964 0 0 0 -0.73414 -12.532 25.099 25.099 0 0 1 -2.1395 -5.0965c-0.49273-2.4598 0.28256-5.1004-0.53011-7.4738-1.0952-3.1985-4.7192-4.829-8.0837-5.1601s-6.7836 0.2616-10.129-0.22672c-2.9968-0.43746-5.8981-1.7363-8.9209-1.5481-3.627 0.2258-6.7832 2.5628-9.2975 5.1867s-4.647 5.6419-7.5024 7.8898a14.714 14.714 0 0 0 -2.4056 2.071c-1.4544 1.7723-1.6019 4.2971-1.1973 6.5537s1.2849 4.4093 1.6566 6.6716c0.34932 2.126 0.24155 4.2981 0.392 6.4474a11.333 11.333 0 0 0 1.891 6.086 5.7438 5.7438 0 0 0 4.4695 2.335c0.60522 0.014 1.1164-0.52987 1.7272-0.38806 0.77 0.19 1.1 0.91 1.78 1.22z" transform="translate(-65.708 -125.85)"/>
 <path fill="#575a89" d="m375.91 397.28c0.54654-7.4939 0.95828-13.094 0.95828-13.094l3.5335-9.313 11.342 22.407z" transform="translate(-65.708 -125.85)"/>
 <path opacity=".1" d="m375.91 397.28c0.54654-7.4939 0.95828-13.094 0.95828-13.094l3.5335-9.313 11.342 22.407z" transform="translate(-65.708 -125.85)"/>
 <path fill="#a0616a" d="m402.2 323.6s10.576 26.92 4.4867 32.048 33.97-8.6529 33.97-8.6529l-0.96143-3.5252s-13.14-5.1276-6.73-19.87-30.77 0-30.77 0z" transform="translate(-65.708 -125.85)"/>
 <path opacity=".1" d="m402.2 323.6s10.576 26.92 4.4867 32.048 33.97-8.6529 33.97-8.6529l-0.96143-3.5252s-13.14-5.1276-6.73-19.87-30.77 0-30.77 0z" transform="translate(-65.708 -125.85)"/>
 <circle cy="186.21" cx="351.55" r="22.433" fill="#a0616a"/>
 <path fill="#575a89" d="m471.74 360.45s-0.08983 1.7818-0.24706 4.8961c-0.32191 6.341-0.89833 18.222-1.4748 31.929h-86.97a43.116 43.116 0 0 1 -5.5324 -9.9045 10.688 10.688 0 0 1 -0.65131 -3.1892c-0.47914-8.497 7.1345-20.355 12.51-21.486 6.0864-1.2877 17.623-13.461 17.623-13.461a2.7449 2.7449 0 0 0 1.4673 2.216v0.0075a5.9642 5.9642 0 0 0 3.017 0.6588c3.7582 0 20.288-7.6286 25.596-10.122 1.0406-0.48658 1.647-0.77856 1.647-0.77856a124.4 124.4 0 0 0 18.911 6.4158 20.112 20.112 0 0 1 14.1 12.8z" transform="translate(-65.708 -125.85)"/>
 <path fill="#2f2e41" d="m399.56 320.59a1.8351 1.8351 0 0 0 2.1511 -0.88881c1.7292-2.7245-1.4545-6.2375-0.7651-9.3899 0.55228-2.5256 3.4221-4.0245 4.0089-6.5423 0.57015-2.4464-1.1867-5.204 0.00076-7.4175 0.9303-1.7342 3.2541-2.1906 5.1985-1.8868s3.79 1.1586 5.7543 1.2783c2.6175 0.15959 5.1126-0.99268 7.6721-1.5636s5.6814-0.34739 7.1872 1.7996c1.9334 2.7568-0.02783 6.5956 0.64536 9.8948 0.53455 2.6198 6.625 4.4586 7.1774 2.6871a17.964 17.964 0 0 0 -0.73415 -12.532 25.1 25.1 0 0 1 -2.1395 -5.0965c-0.49273-2.4598 0.28256-5.1004-0.53011-7.4738-1.0952-3.1985-4.7192-4.829-8.0837-5.1601s-6.7836 0.26161-10.129-0.22672c-2.9968-0.43745-5.8981-1.7363-8.9209-1.5481-3.627 0.2258-6.7832 2.5628-9.2975 5.1867s-4.647 5.6419-7.5024 7.8898a14.714 14.714 0 0 0 -2.4056 2.0709c-1.4544 1.7723-1.6019 4.2971-1.1973 6.5537s1.2849 4.4093 1.6566 6.6716c0.34932 2.126 0.24156 4.2981 0.392 6.4474a11.333 11.333 0 0 0 1.891 6.086 5.7438 5.7438 0 0 0 4.4695 2.3351c0.60521 0.014 1.1164-0.52987 1.7272-0.38806 0.77 0.19 1.1 0.91 1.78 1.22z" transform="translate(-65.708 -125.85)"/>
 <path opacity=".1" d="m482.86 397.28h-25.38c-1.9315-14.164-3.5261-28.972-3.5261-28.972l5.1282-2.2459 10.421-5.6073s0.76362 1.8117 1.9914 4.8961c2.62 6.58 7.38 19 11.37 31.92z" transform="translate(-65.708 -125.85)"/>
 <path fill="#575a89" d="m485.09 397.28h-28.64c-4.2448-15.497-8.4296-32.341-8.4296-32.341l10.9-8.0104 12.817 3.5261s7.5 17.85 13.35 36.82z" transform="translate(-65.708 -125.85)"/>
 <rect y="134.42" x="499.57" height="8.235" fill="#784df6" width="120.53"/>
 <rect y="291.64" x="298.94" height="8.235" fill="#784df6" width="42.672"/>
 <rect y="306.61" x="298.94" height="8.235" fill="#784df6" width="122.03"/>
 <rect y="164.37" x="471.12" height="8.235" fill="#f2f2f2" width="173.68"/>
 <rect y="187.58" x="471.12" height="8.235" fill="#f2f2f2" width="173.68"/>
 <rect y="210.79" x="471.12" height="8.235" fill="#f2f2f2" width="173.68"/>
 <rect y="233.99" x="471.12" height="8.235" fill="#f2f2f2" width="173.68"/>
 <rect y="257.2" x="471.12" height="8.235" fill="#f2f2f2" width="173.68"/>
 <rect y="280.41" x="471.12" height="8.235" fill="#f2f2f2" width="173.68"/>
 <rect y="303.62" x="471.12" height="8.235" fill="#f2f2f2" width="173.68"/>
 <path fill="#57b894" d="m743.99 430.58l-47.478 47.478-19.95-19.96a6.8215 6.8215 0 0 0 -9.6471 -0.00005l-0.71688-1.0722c-2.664 2.664-1.9471 8.0554 0.71686 10.719l25.892 25.892a5.2049 5.2049 0 0 0 7.3589 0.00191l53.48-53.41c2.6657-2.6629 3.6327-7.546 0.96834-10.21-2.67-2.67-7.95-2.1-10.62 0.56z" transform="translate(-65.708 -125.85)"/>
 <path opacity=".1" d="m743.99 430.58l-47.478 47.478-19.95-19.96a6.8215 6.8215 0 0 0 -9.6471 -0.00005l-0.71688-1.0722c-2.664 2.664-1.9471 8.0554 0.71686 10.719l25.892 25.892a5.2049 5.2049 0 0 0 7.3589 0.00191l53.48-53.41c2.6657-2.6629 3.6327-7.546 0.96834-10.21-2.67-2.67-7.95-2.1-10.62 0.56z" transform="translate(-65.708 -125.85)"/>
 <path fill="#57b894" d="m743.99 428.48l-47.478 47.478-19.95-19.96a6.8215 6.8215 0 0 0 -9.6471 0 6.8215 6.8215 0 0 0 0 9.6471l25.892 25.892a5.2049 5.2049 0 0 0 7.3589 0.00192l53.472-53.416a6.8198 6.8198 0 0 0 0.00245 -9.6472 6.8198 6.8198 0 0 0 -9.64 0.01z" transform="translate(-65.708 -125.85)"/>
 <path opacity=".1" d="m1093.3 703.47c0 53.533-74.619 36.975-165.98 36.975s-164.89 16.56-164.89-36.97 74.609-65.177 165.97-65.177 164.9 11.65 164.9 65.18z" transform="translate(-65.708 -125.85)"/>
 <path fill="#3f3d56" d="m1093.3 693.47c0 53.533-74.619 36.975-165.98 36.975s-164.89 16.56-164.89-36.97 74.609-65.177 165.97-65.177 164.9 11.65 164.9 65.18z" transform="translate(-65.708 -125.85)"/>
 <path fill="#ffc1c7" d="m781.36 525.76l-3.381 3.926s-41.11 3.86-39.44 10.53 49.498-8.8985 49.498-8.8985z" transform="translate(-65.708 -125.85)"/>
 <path fill="#784df6" d="m855.89 522.42s-43.936 15.572-67.851 8.8985l11.123 22.246s56.728-1.6685 66.739-11.679-10.01-19.47-10.01-19.47z" transform="translate(-65.708 -125.85)"/>
 <path opacity=".1" d="m855.89 522.42s-43.936 15.572-67.851 8.8985l11.123 22.246s56.728-1.6685 66.739-11.679-10.01-19.47-10.01-19.47z" transform="translate(-65.708 -125.85)"/>
 <circle cy="247.8" cx="760.42" r="29.476" fill="#ffc1c7"/>
 <path fill="#ffc1c7" d="m851.27 401.33a22.993 22.993 0 0 0 3.8188 5.2934 48.214 48.214 0 0 0 14.2 10.63 484.15 484.15 0 0 1 -50.624 7.5278c1.7946-6.319-0.5676-13.078-3.742-18.829s-7.221-11.111-9.2078-17.373l19.923 0.53554c3.6149 0.09716 7.2415 0.20547 10.856 0.02849 2.7013-0.13227 7.2017-1.7506 9.7231-1.1545 5.33 1.26 2.72 8.61 5.05 13.34z" transform="translate(-65.708 -125.85)"/>
 <path fill="#2f2e41" d="m918.18 539.67l16.685 20.022s27.81 65.07-32.81 71.74-105.67-5.0054-105.67-5.0054-24.471-11.679-25.027-2.7808-2.7808 33.926-16.129 58.397l-11.679 26.696s-6.1177 6.1177-4.4493 14.46-37.263 11.123-36.706 0 5.5616-9.4547 5.5616-15.016 8.8985-18.909 8.8985-18.909l16.129-80.087s-1.1123-41.156 36.706-33.369 91.766-1.6685 91.766-1.6685l12.235-42.824z" transform="translate(-65.708 -125.85)"/>
 <path opacity=".1" d="m918.18 539.67l16.685 20.022s27.81 65.07-32.81 71.74-105.67-5.0054-105.67-5.0054-24.471-11.679-25.027-2.7808-2.7808 33.926-16.129 58.397l-11.679 26.696s-6.1177 6.1177-4.4493 14.46-37.263 11.123-36.706 0 5.5616-9.4547 5.5616-15.016 8.8985-18.909 8.8985-18.909l16.129-80.087s-1.1123-41.156 36.706-33.369 91.766-1.6685 91.766-1.6685l12.235-42.824z" transform="translate(-65.708 -125.85)"/>
 <path fill="#2f2e41" d="m855.61 538.2s50.888-19.113 79.253 21.487 7.2301 62.846-21.69 65.627-66.739 2.2246-75.638-7.2301-65.07-36.15-65.07-36.15-27.961-14.262-33.446 4.27-6.041 22.982-6.041 22.982-28.92 21.134-40.6 25.027-7.7862 11.123-12.235 11.123-31.701 6.1177-28.92-14.46l45.049-41.156 45.049-43.936s12.792-18.909 45.605-8.8985a678.45 678.45 0 0 0 66.183 16.129z" transform="translate(-65.708 -125.85)"/>
 <path fill="#cbceda" d="m737.43 722.09s10.567 26.696 1.6685 30.033-27.808 1.1123-27.808 1.1123-22.246-2.7808-27.808-2.2246-28.364-3.8931-25.027-12.792 20.578-6.6739 20.578-6.6739l15.57-7.23s1.6685-5.5616 5.5616-3.337 15.02 10.57 37.27 1.12z" transform="translate(-65.708 -125.85)"/>
 <path fill="#cbceda" d="m679.59 643.11s11.679 26.139-7.23 23.915-33.369-6.1177-38.931-6.6739c-5.3498-0.535-20.477-5.7014-18.156-15.994a9.1549 9.1549 0 0 0 0.15083 -2.0202c0-1.3817 1.877-4.093 16.893-3.6759 0 0 11.123 0 15.572-7.7862 0 0 16.69 21.13 31.71 12.23z" transform="translate(-65.708 -125.85)"/>
 <path fill="#784df6" d="m805.83 420.65s40.043-25.027 73.413 0 55.616 139.04 55.616 139.04l-77.306-17.241s-3.337-13.348-7.7862-15.572-5.0054-11.679-5.0054-11.679-23.915-7.2301-22.246-35.038-16.68-59.51-16.68-59.51z" transform="translate(-65.708 -125.85)"/>
 <path fill="#784df6" d="m826.41 421.76h-20.58s-12.235 13.904-13.904 48.942l-6.67 27.81s-13.904 33.369-5.5616 38.931 24.471 5.0054 27.808-6.1177 26.139-75.637 26.139-75.637z" transform="translate(-65.708 -125.85)"/>
 <path fill="#2f2e41" d="m820.51 335.29a29.796 29.796 0 0 1 30.821 5.0533c10.681 9.532 12.836 25.082 15.536 39.141s8.132 29.715 21.382 35.135a55.709 55.709 0 0 1 -17.951 -0.52231l20.023 17.944-33.731-10.994c-10.586-3.4506-21.704-6.9444-32.667-4.9957-18.161 3.2283-30.804 20.301-48.247 26.299l1.9384-9.4586-11.703-0.0897a22.921 22.921 0 0 0 6.7051 -7.8556 6.489 6.489 0 0 0 -4.4767 -2.3423c-4.8782-30.428 13.191-60.507 36.738-80.387 4.6317-3.9102 9.7568-7.666 15.739-8.6441s12.965 1.6968 15.046 7.3902" transform="translate(-65.708 -125.85)"/>
 <path fill="#3f3d56" d="m310.2 614.16c0 64.016 40.16 115.82 89.791 115.82" transform="translate(-65.708 -125.85)"/>
 <path fill="#784df6" d="m399.99 729.98c0-64.735 44.817-117.12 100.2-117.12" transform="translate(-65.708 -125.85)"/>
 <path fill="#784df6" d="m342.73 619.96c0 60.809 25.61 110.01 57.258 110.01" transform="translate(-65.708 -125.85)"/>
 <path fill="#3f3d56" d="m399.99 729.98c0-82.717 51.801-149.65 115.82-149.65" transform="translate(-65.708 -125.85)"/>
 <path fill="#a8a8a8" d="m381.1 730.79s12.734-0.39219 16.571-3.1249 19.588-5.9958 20.54-1.6131 19.137 21.798 4.7601 21.914-33.404-2.2394-37.235-4.5725-4.64-12.6-4.64-12.6z" transform="translate(-65.708 -125.85)"/>
 <path opacity=".2" d="m423.23 746.44c-14.376 0.116-33.404-2.2393-37.235-4.5725-2.917-1.7768-4.0793-8.1525-4.4682-11.094-0.26935 0.01158-0.42511 0.01657-0.42511 0.01657s0.80653 10.27 4.6368 12.603 22.858 4.6885 37.235 4.5725c4.1499-0.03347 5.5834-1.5099 5.5046-3.6967-0.57 1.32-2.16 2.15-5.24 2.17z" transform="translate(-65.708 -125.85)"/>
</svg>
