<?xml version="1.0" encoding="UTF-8" standalone="no"?>
<!-- Generator: Adobe Illustrator 22.0.1, SVG Export Plug-In . SVG Version: 6.00 Build 0)  -->
<svg style="enable-background:new 0 0 200.4 66.5" xmlns="http://www.w3.org/2000/svg" xml:space="preserve" y="0px" x="0px" xmlns:xlink="http://www.w3.org/1999/xlink" viewBox="0 0 200.4 66.5">
<style type="text/css">
	.amazon-0{fill:#8C98A4;}
</style>
	<path id="arrow_1_" d="m120.9 47.6c-12.1 5.1-25.2 7.6-37.1 7.6-17.7 0-34.8-4.8-48.7-12.9-1.2-0.7-2.1 0.6-1.1 1.5 12.8 11.5 29.8 18.5 48.7 18.5 13.4 0 29-4.3 39.8-12.2 1.7-1.3 0.1-3.3-1.6-2.5z" class="amazon-0"/>
	<path id="arrow" d="m114.1 43.1c-0.9 0.7-0.7 1.6 0.3 1.5 3.4-0.4 11.2-1.3 12.6 0.5s-1.5 9-2.8 12.3c-0.4 1 0.5 1.4 1.3 0.7 5.8-4.8 7.3-15 6-16.4-1.2-1.7-11.3-2.9-17.4 1.4z" class="amazon-0"/>
	<path id="z" d="m135.1 30.8c-3.3-1.9-7.2-2.4-10.8-2.3l9.8-14c0.9-1.2 1.4-2 1.4-2.6v-3.6c0-0.7-0.5-1-1.1-1h-18.9c-0.6 0-1 0.5-1 1v4.2c0 0.7 0.5 1 1.1 1h9.9l-11.4 16.2c-0.7 1-0.7 2.2-0.7 2.9v4.3c0 0.7 0.7 1.3 1.3 0.9 6.4-3.4 14.1-3.1 19.9 0 0.7 0.4 1.4-0.4 1.4-0.9v-4.4c0-0.7-0.2-1.2-0.9-1.7z" class="amazon-0"/>
	<path id="m" d="m40.1 38.8h5.8c0.7 0 1.1-0.5 1.1-1v-15.6c0-3.4-0.2-8.1 4-8.1 4.1 0 3.5 4.8 3.5 8.1v15.6c0 0.6 0.5 1 1 1h5.8c0.7 0 1.1-0.5 1.1-1v-15.6c0-1.7-0.1-4.2 0.6-5.7 0.6-1.5 2-2.4 3.4-2.4 1.7 0 3 0.6 3.3 2.5 0.3 1.2 0.2 4.3 0.2 5.5v15.6c0 0.6 0.5 1 1 1h5.8c0.7 0 1.1-0.5 1.1-1v-18.6c0-3.2 0.4-6.8-1.5-9.2-1.6-2.2-4.3-3.3-6.6-3.3-3.3 0-6.5 1.8-7.9 5.5-1.6-3.7-3.8-5.5-7.4-5.5-3.5 0-6.1 1.8-7.5 5.5h-0.1v-3.8c0-0.6-0.5-0.9-1-1h-5.3c-0.7 0-1.1 0.5-1.1 1v29.4c-0.3 0.6 0.1 1 0.7 1.1z" class="amazon-0"/>
	<path id="o" d="m151.7 6.7c-8.3 0-12.9 7.2-12.9 16.3s4.6 16.4 12.9 16.4c8 0 13.1-7.2 13.1-16.1 0.1-9.2-4.5-16.6-13.1-16.6zm0 26.6c-4.5 0-4.5-7.7-4.5-11.3s0.3-9.3 4.5-9.3c1.9 0 3.1 0.8 3.7 2.9 0.7 2.3 0.8 5.3 0.8 7.8 0.2 3.8 0 9.9-4.5 9.9z" class="amazon-0"/>
	<path id="n" d="m184.5 6.7c-4 0-6.2 2-7.8 6h-0.1v-4.5c-0.1-0.5-0.6-0.8-1-0.8h-5.3c-0.6 0-1 0.5-1.1 0.9v29.4c0 0.6 0.5 1 1 1h5.7c0.7 0 1.1-0.5 1.1-1v-15.8c0-2 0.1-3.8 0.9-5.6 0.7-1.4 2-2.3 3.3-2.3 4 0 3.6 4.7 3.6 7.9v16c0.1 0.5 0.5 0.9 1 0.9h5.8c0.6 0 1-0.4 1.1-0.9v-18.5c0-2.9 0-6.8-1.5-9.1-1.6-2.7-4.1-3.6-6.7-3.6z" class="amazon-0"/>
	<path id="a_1_" d="m99.6 18.9c-3.3 0.4-7.6 0.7-10.8 2-3.6 1.6-6.1 4.7-6.1 9.4 0 6 3.7 8.9 8.6 8.9 4.1 0 6.3-0.9 9.5-4.2 1 1.5 1.4 2.2 3.3 3.8 0.5 0.2 0.9 0.2 1.4-0.1 1.1-1 3.3-2.8 4.4-3.8 0.5-0.4 0.4-1 0-1.5-1-1.5-2.1-2.6-2.1-5.3v-8.9c0-3.8 0.3-7.3-2.5-9.9-2.1-2.1-5.9-2.9-8.7-2.9-5.5 0-11.5 2-12.8 8.7-0.1 0.7 0.4 1.1 0.8 1.2l5.4 0.7c0.6 0 0.9-0.6 1-1 0.5-2.3 2.4-3.4 4.6-3.4 1.2 0 2.5 0.5 3.3 1.5 0.8 1.2 0.7 2.8 0.7 4.2v0.6zm-1.2 11.9c-0.9 1.6-2.3 2.6-4 2.6-2.2 0-3.5-1.7-3.5-4.2 0-4.9 4.4-5.8 8.6-5.8v1.2c0.1 2.4 0.1 4.3-1.1 6.2z" class="amazon-0"/>
	<path id="a" d="m34.6 33.4c-1-1.5-2.1-2.6-2.1-5.3v-8.9c0-3.8 0.3-7.3-2.5-9.9-2.2-2.1-5.9-2.9-8.7-2.9-5.5 0-11.5 2-12.8 8.7-0.1 0.7 0.4 1.1 0.8 1.2l5.6 0.6c0.6 0 0.9-0.6 1-1 0.5-2.3 2.4-3.4 4.7-3.4 1.2 0 2.5 0.5 3.3 1.5 0.8 1.2 0.7 2.8 0.7 4.2v0.7c-3.4 0.4-7.7 0.7-10.9 2-3.6 1.6-6.1 4.7-6.1 9.4 0 6 3.7 8.9 8.6 8.9 4.1 0 6.3-0.9 9.5-4.2 1 1.5 1.4 2.2 3.3 3.8 0.5 0.2 0.9 0.2 1.4-0.1 1.1-1 3.3-2.8 4.4-3.8 0.3-0.4 0.2-1-0.2-1.5zm-11.2-2.6c-0.9 1.6-2.3 2.6-4 2.6-2.2 0-3.4-1.7-3.4-4.2 0-4.9 4.4-5.8 8.6-5.8v1.2c-0.2 2.4-0.1 4.3-1.2 6.2z" class="amazon-0"/>
</svg>
